<?xml version="1.0" encoding="UTF-8"?>
<svg id="Capa_1" data-name="Capa 1" xmlns="http://www.w3.org/2000/svg" viewBox="0 0 1024 1024">
  <defs>
    <style>
      .cls-1 {
        fill: #3932cc;
      }
    </style>
  </defs>
  <path class="cls-1" d="M479.4,57.36c-107.93,16.38-194.03,78.4-241.66,173.93-21.59,42.92-31.26,86.34-31.26,139.44s10.17,99.74,33.74,148.62l11.41,23.32-23.57,78.4c-12.9,43.17-23.32,78.65-23.07,78.9s34.74-11.17,76.42-25.31l76.17-25.8,25.56,11.91c27.04,12.9,57.07,22.83,83.86,27.79,25.31,4.96,91.55,4.22,116.61-.99,128.03-27.29,221.57-119.34,250.84-247.37,6.95-30.52,8.68-83.86,3.72-116.12-20.59-134.97-127.53-242.91-262.01-264.74-21.34-3.23-79.89-4.71-96.77-1.98ZM440.2,201.27c5.95,5.46,36.72,78.4,36.72,87.58s-2.48,14.14-17.86,34.49c-13.65,17.62-13.89,21.34-3.47,37.47,22.83,34.98,65.75,72.2,106.19,92.3,21.59,10.67,23.57,9.92,44.16-13.65,9.92-11.17,20.59-21.34,23.57-22.58,4.47-1.74,13.4,1.24,43.67,14.39,21.09,9.43,40.19,18.61,42.68,20.84,2.73,2.48,4.22,7.44,4.22,15.38,0,28.29-16.13,51.11-46.15,66.25-33.25,16.38-68.48,14.14-120.09-7.69-80.14-33.99-154.82-105.45-191.05-183.36-21.83-47.14-19.85-82.62,7.44-122.07,8.44-12.41,17.37-17.86,35.98-22.58,14.14-3.72,27.79-2.23,33.99,3.23Z"/>
  <g>
    <path class="cls-1" d="M192.11,840.86c-15.92,41.75-29.29,76.81-29.75,77.85-.81,1.96.46,2.08,16.38,2.08h17.07l5.88-17.65,5.77-17.53,29.64-.35,29.52-.23,1.27,4.84c.81,2.65,3.46,10.73,6,17.88l4.61,13.03h17.18c9.46,0,17.18-.12,17.18-.35,0-.12-13.15-35.06-29.18-77.5l-29.18-77.27-16.72-.35-16.72-.35-28.95,75.89ZM246.9,827.94c5.07,14.53,9.69,27.45,10.03,28.49.81,1.96-.58,2.08-19.61,2.08s-20.41-.12-19.61-2.08c.46-1.04,4.61-13.38,9.34-27.33,4.73-13.95,8.88-26.06,9.23-26.99.23-.92.69-1.38.92-1.15s4.61,12.34,9.69,26.99Z"/>
    <path class="cls-1" d="M419.54,766.47c.81,2.31,39.79,152.93,39.79,153.62,0,.35,7.96.69,17.76.69h17.65l14.07-49.94c7.73-27.33,14.3-50.63,14.65-51.55s7.27,21.34,15.34,49.59l14.65,51.32,17.3.35,17.41.35,9-33.21c20.07-74.16,32.87-121.67,32.87-122.13,0-.35-7.61-.35-16.95-.23l-16.84.35-7.27,29.99c-4.04,16.49-9.69,40.6-12.69,53.63-3,13.03-5.77,23.99-6.11,24.45s-7.38-23.87-15.68-53.97l-14.99-54.67h-31.25l-14.3,53.28c-13.49,51.09-16.03,59.51-16.15,54.78,0-1.61-22.95-98.95-24.91-106.1-.58-1.73-2.42-1.96-17.18-1.96-12.8,0-16.49.35-16.15,1.38Z"/>
    <path class="cls-1" d="M663.81,806.03c-19.61,4.27-34.6,19.03-36.33,35.64l-.35,3.34,15.22.12,15.22.12.81-3.34c1.15-5.19,8.53-11.76,14.76-13.15,13.84-2.88,25.37,4.96,24.68,17.07l-.35,5.07-20.07,2.65c-33.68,4.38-43.25,8.53-50.4,22.26-3,5.77-3,20.76,0,26.99,10.61,21.45,47.75,27.22,67.35,10.38l4.84-4.15v11.76h28.26l-.35-41.29c-.46-49.82-.58-50.4-10.96-60.78-5.31-5.31-9-7.84-14.07-9.69-13.26-4.96-25.03-5.88-38.29-3ZM697.6,876.49c-1.85,15.92-13.95,26.06-29.18,24.33-11.19-1.27-16.95-13.26-10.15-21.34,1.5-1.85,4.27-3.92,6-4.73,2.65-1.04,22.49-3.92,31.95-4.61,1.96-.12,2.08.46,1.38,6.34Z"/>
    <path class="cls-1" d="M796.55,806.72c-4.96,1.5-9,3.92-13.03,7.5l-5.88,5.31v-12.92h-29.99v161.46h29.99v-58.93l4.96,4.04c9.11,7.5,14.76,9.34,28.6,9.34,11.76,0,12.46-.12,20.87-4.38,22.83-11.3,34.37-39.56,28.02-69.31-6.8-32.29-35.18-51.09-63.55-42.09ZM815.23,834.17c10.73,4.84,16.03,16.61,15.22,33.56-.35,8.19-1.04,10.84-3.58,15.34-10.49,17.88-34.48,17.76-44.63-.35-2.65-4.73-2.88-6.46-2.88-18.45,0-14.53,1.5-19.14,8.3-25.6,7.04-6.69,18.57-8.53,27.56-4.5Z"/>
    <path class="cls-1" d="M323.24,819.29v12.69l26.41.23,26.41.35-27.56,33.45-27.56,33.45v21.34h95.72v-25.37h-59.05l8.88-10.15c4.96-5.54,17.99-20.53,28.95-33.21l20.07-23.3v-22.14h-92.26v12.69Z"/>
  </g>
</svg>